<?xml version="1.0" encoding="utf-8"?>
<!DOCTYPE svg PUBLIC "-//W3C//DTD SVG 1.0//EN" "http://www.w3.org/TR/2001/REC-SVG-20010904/DTD/svg10.dtd">
<svg version="1.0" xmlns="http://www.w3.org/2000/svg" width="2000px" height="2000px" viewBox="0 0 2000 2000" preserveAspectRatio="xMidYMid meet">
 <g fill="#030303">
  <path d="M278 1500 c-57.6 -0.3 -87.4 -0.8 -87.3 -1.5 0.2 -0.5 2.8 -7.7 5.9 -16 6.6 -17.7 14 -37.8 19.4 -52.5 2.1 -5.8 10.1 -27.1 17.8 -47.5 7.7 -20.3 20.6 -54.8 28.7 -76.5 8.1 -21.7 22.9 -61.5 33 -88.5 10.1 -26.9 24.3 -65.2 31.7 -85 7.4 -19.8 29.6 -79.3 49.3 -132.2 20.8 -55.8 36.2 -96 36.8 -95.6 0.6 0.3 0.7 0.1 0.3 -0.6 -1 -1.6 39.4 -110.2 40.7 -109.4 0.6 0.3 0.7 0.1 0.3 -0.6 -1.1 -1.7 4.5 -16.6 5.6 -14.9 0.5 0.8 0.6 0.2 0.2 -1.6 -0.5 -2.2 -0.4 -2.7 0.6 -2.1 0.9 0.5 1.1 0.4 0.6 -0.4 -1 -1.6 1.3 -8.3 2.6 -7.5 0.7 0.4 0.8 0.2 0.4 -0.5 -1.1 -1.7 2.5 -11.4 3.7 -9.8 0.5 0.8 0.6 0.4 0.2 -0.9 -0.6 -2.4 0.3 -5.6 1.5 -4.9 0.5 0.3 0.6 -0.5 0.2 -1.7 -0.4 -1.6 -0.2 -1.9 0.8 -1.3 0.9 0.5 1.1 0.4 0.6 -0.4 -0.4 -0.6 0.6 -4.8 2.3 -9.2 l3.1 -8 -28.7 -35.7 c-15.8 -19.6 -44.3 -55 -63.3 -78.7 -19.1 -23.7 -35.2 -43.9 -35.8 -45.1 l-1.1 -2.1 82.6 -0.6 c45.5 -0.4 354.3 -0.7 686.4 -0.7 482 0 603.8 0.3 604.2 1.2 0.6 1.8 -329.7 863.6 -331.6 865.1 -1.3 1 -19.6 47.5 -23.9 60.5 l-1.4 4.4 -203.7 0.5 c-187.8 0.4 -203.7 0.3 -203.7 -1.2 0 -0.9 1.5 -5.7 3.4 -10.8 5.2 -13.8 50.3 -137 94.4 -257.5 3.7 -10 6.8 -17.9 7 -17.4 0.1 0.4 -1.6 5.7 -3.8 11.6 -2.3 6 -3.9 11 -3.7 11.3 0.3 0.2 1.7 -3 3.2 -7.2 1.5 -4.1 3.2 -7.5 3.8 -7.5 1.3 0 0.1 7.4 -1.3 7.8 -0.5 0.2 -1 1.2 -1 2.2 0 1 -6.9 20.9 -15.4 44.2 -8.4 23.2 -16.3 45.2 -17.5 48.8 -2 5.8 -53.3 146.2 -56.1 153.5 -0.9 2.4 0.4 1.5 7.2 -5 4.6 -4.4 16.6 -16 26.8 -25.7 16 -15.2 18.7 -18.3 19.7 -22 0.7 -2.4 21.9 -59.5 47.1 -127 25.3 -67.6 45.8 -122.8 45.6 -122.8 -0.2 0 -11.3 8.6 -24.6 19.1 -13.4 10.5 -24.8 19.4 -25.5 19.6 -0.7 0.3 -2 -0.2 -2.8 -1.1 -1.5 -1.5 -17 -1.6 -167.9 -1.6 l-166.3 0 -13.1 34.3 c-7.3 18.8 -26.4 68.8 -42.6 111.2 -24.1 63 -29.8 77 -31.3 77 -1.3 0 -2.9 2.6 -6.2 10.7 -2.5 6.3 -4.8 10.5 -5.4 10.1 -0.6 -0.3 -0.7 -0.1 -0.3 0.6 0.4 0.6 -2.8 10.3 -7.2 21.4 -4.4 11.1 -8.3 21.2 -8.7 22.5 l-0.6 2.2 -124.2 -0.2 c-68.3 -0.2 -163.6 -0.5 -211.7 -0.8z m241.8 -0.7 c-1 -0.2 -1.8 -1.1 -1.8 -1.9 0 -1.2 7.1 -1.4 45.6 -1.6 l45.6 -0.3 4.9 -12 c2.7 -6.6 5.4 -12.9 5.9 -14 0.5 -1.1 1.9 -4.5 3.1 -7.5 1.1 -3 2.6 -6.8 3.4 -8.5 3.1 -7.2 6.5 -15.7 6.5 -16.2 0 -0.3 -79.4 -0.3 -176.4 -0.2 l-176.4 0.4 -37.7 28.5 -37.8 28.5 8.4 0.7 c4.6 0.3 52.6 0.6 106.7 0.7 84.3 0.1 98.2 0.3 98.2 1.5 0 0.8 -0.8 1.7 -1.7 1.9 -1 0.3 22.3 0.5 51.7 0.5 29.4 0 52.7 -0.2 51.8 -0.5z m822.9 -5 l18 -0.6 3.3 -10.1 c1.8 -5.6 6.4 -18.1 10.1 -27.9 3.8 -9.8 6.9 -18 6.9 -18.2 0 -0.3 -79.1 -0.5 -175.7 -0.5 l-175.8 0 -19 18.2 c-10.4 10 -24.1 23 -30.2 29 l-11.3 10.8 177.8 0 c97.9 0 186 -0.3 195.9 -0.7z m-1102.7 -39.5 l33.5 -25.3 136.7 -359.5 c75.2 -197.7 136.8 -359.8 136.8 -360.1 0 -0.7 -65.1 24.8 -66.3 26 -0.4 0.4 -1.9 4.1 -3.3 8.2 -1.4 4.1 -3 8.5 -3.6 9.9 -0.6 1.4 -1.4 3.4 -1.8 4.5 -4.6 11.8 -6 15.7 -6 16.8 0 0.6 -0.7 2.5 -1.5 4.1 -0.9 1.7 -7.2 18.3 -14.1 37 -24.4 66.6 -31.6 86.1 -32.9 89.1 -0.7 1.7 -2 5 -2.8 7.5 -0.9 2.5 -2.2 6.3 -3.1 8.5 -3.9 10.7 -207.5 557.2 -208.2 558.9 -0.6 1.6 -0.4 1.7 1.2 0.7 1 -0.5 17 -12.4 35.4 -26.3z m403 -37.5 c6.6 -17.1 78.7 -205.9 90.2 -236.3 l10.4 -27.5 195.7 -0.3 195.7 -0.2 0 3.6 c0 2.3 -18.1 50.9 -50.6 136.2 -27.9 73 -50.9 133.3 -51.1 134 -0.4 0.9 35.3 1.2 176.5 1.2 l177.1 0 1.9 -5.2 c1.1 -2.9 74.8 -194.7 163.7 -426.3 89 -231.6 162 -421.8 162.2 -422.7 0.5 -1.7 -29.7 -1.8 -625.1 -1.8 l-625.5 0 49.9 61.5 c36.5 45 50 62.2 50 64.1 0 1.4 -62.6 165.7 -139.1 365.2 -76.6 199.5 -139.4 363.3 -139.6 364 -0.4 0.9 35.3 1.2 176.5 1.2 l177.1 0 4.1 -10.7z m389.4 -120.3 c0.5 -1.7 0.4 -2 -0.2 -1 -0.5 0.8 -1.3 2.6 -1.6 4 -0.5 1.7 -0.4 2 0.2 1 0.5 -0.8 1.3 -2.6 1.6 -4z m5 -14 c0.5 -1.7 0.4 -2 -0.2 -1 -0.5 0.8 -1.3 2.6 -1.6 4 -0.5 1.7 -0.4 2 0.2 1 0.5 -0.8 1.3 -2.6 1.6 -4z m3.5 -10 c0 -0.8 -0.7 0.1 -1.4 2 -1.8 4.6 -1.7 6.4 0 2.5 0.8 -1.6 1.4 -3.7 1.4 -4.5z m4.5 -12 c0.5 -1.7 0.4 -2 -0.2 -1 -0.5 0.8 -1.3 2.6 -1.6 4 -0.5 1.7 -0.4 2 0.2 1 0.5 -0.8 1.3 -2.6 1.6 -4z m3.5 -9 c1.2 -3 2.1 -5.9 2 -6.5 0 -1.1 -3.1 6.3 -4.4 10.5 -1.3 4.3 0.2 1.8 2.4 -4z m38.5 -67.7 l27.6 -21.8 -139.3 -0.3 c-76.5 -0.2 -158.2 0 -181.3 0.4 l-42.2 0.6 -7.8 20.6 c-4.4 11.3 -8 20.9 -8.2 21.4 -0.2 0.4 72.5 0.8 161.6 0.8 l161.9 0 27.7 -21.7z m-612 -443.6 c1.8 -4.4 3 -8.3 2.3 -7.7 -0.8 0.8 -4.7 11 -4.2 11 0.3 0 1.1 -1.5 1.9 -3.3z m40 -29.5 l34.8 -13.8 -48.5 -60.4 c-26.7 -33.3 -48.3 -60.9 -48 -61.4 0.4 -0.5 0.1 -0.6 -0.5 -0.2 -0.7 0.4 -1.2 0.2 -1.2 -0.3 0 -0.8 -14.6 -1.1 -47 -1.1 l-46.9 0 13.2 16.4 c7.3 9 34.6 43 60.7 75.4 26.1 32.5 47.7 59.1 48 59.1 0.3 0.1 16.2 -6.1 35.4 -13.7z"/>
  <path d="M827 941.3 c0 -1.6 13.4 -38 29.7 -81 l29.8 -78.3 195.8 0 195.7 0 0 3.2 c0 1.9 -12.9 37 -29.7 81 l-29.6 77.8 -195.9 0 -195.8 0 0 -2.7z m343.2 -10.8 c1.6 -4.4 4.2 -11.6 5.8 -16 1.6 -4.4 5.6 -15.4 9 -24.5 10.1 -27 24 -65 24 -65.5 0 -0.3 -74.6 -0.5 -165.9 -0.5 l-165.8 0 -12.1 31.8 c-6.7 17.4 -16.6 43.3 -22.1 57.5 l-9.9 25.7 167 -0.2 167 -0.3 3 -8z m66.5 -63.2 c14.4 -37.3 26.1 -67.8 26 -68 -0.2 -0.1 -11 5.7 -24.2 13 l-23.9 13.2 -19.2 52.9 c-10.7 29 -19.6 53.7 -19.9 54.7 -0.6 1.8 0.2 1.9 17.2 1.9 l17.8 0 26.2 -67.7z m-7.5 -61.5 l23.8 -13.3 -17.2 -0.7 c-9.5 -0.4 -90.2 -0.7 -179.3 -0.5 l-161.9 0.2 -3.3 8.5 c-1.8 4.6 -4.2 10.8 -5.3 13.7 l-2 5.3 160.7 0 160.6 0 23.9 -13.2z"/>
 </g>
 <g fill="#1c1c1c">
 </g>
 <g fill="#404040">
  <path d="M205.1 1498.1 l-11.4 -0.6 41.9 -31.6 41.9 -31.5 180.3 -0.3 c107.2 -0.2 180.2 0.1 180.2 0.6 0 0.5 -5.8 15.1 -12.9 32.4 l-12.9 31.4 -197.8 0.1 c-108.9 0 -203 -0.2 -209.3 -0.5z"/>
  <path d="M961 1496.6 c0.8 -0.8 15.9 -15.2 33.5 -32 l32 -30.6 179.8 0 c107.4 0 179.7 0.4 179.7 0.9 0 0.5 -3.5 10.1 -7.9 21.3 -4.3 11.1 -9.3 24.8 -11.1 30.4 l-3.3 10.1 -18 0.6 c-9.9 0.4 -100.8 0.7 -202.1 0.7 -160 0 -183.8 -0.2 -182.6 -1.4z"/>
  <path d="M195 1493 c0 -0.7 227.4 -612.1 240.9 -647.5 3.8 -9.9 9.1 -24.1 11.8 -31.5 11.4 -30.6 13.4 -36.2 18.9 -51 3.1 -8.5 6.7 -17.9 8 -20.7 1.3 -2.9 2.6 -6.3 2.9 -7.6 0.6 -2.1 5.5 -4.3 38.6 -17.4 26.8 -10.6 37.8 -14.6 37.4 -13.4 -0.3 0.9 -62.7 165.2 -138.8 365.1 l-138.3 363.5 -40.7 30.7 c-22.4 16.8 -40.7 30.3 -40.7 29.8z"/>
  <path d="M963.9 1483.3 c8.1 -22.6 56.5 -154.6 62.8 -171.3 3.6 -9.6 8.3 -22.2 10.4 -28 14.5 -39.8 22.7 -61.8 24.6 -65.3 0.8 -1.6 1.6 -4 1.7 -5.4 0.2 -1.9 7 -7.7 30.6 -26.3 16.7 -13.2 30.5 -23.8 30.7 -23.6 0.2 0.2 -21.7 59.4 -48.8 131.7 -27 72.3 -49.3 132.6 -49.6 134.1 -0.4 1.9 -9.4 11.2 -30.5 31.4 -16.5 15.8 -31.3 29.8 -32.9 31.1 l-2.9 2.5 3.9 -10.9z"/>
  <path d="M280 1430.5 c0 -1.4 82.3 -215.5 82.7 -215.2 0.4 0.5 -80.7 214 -81.8 215.2 -0.5 0.5 -0.9 0.5 -0.9 0z"/>
  <path d="M1028 1430.3 c0 -1.3 43.3 -114.3 43.7 -114 0.2 0.2 -9.3 26.1 -20.9 57.5 -18.3 49.2 -22.8 60.3 -22.8 56.5z"/>
  <path d="M1072.6 1313 c0.3 -1.4 1.1 -3.2 1.6 -4 0.6 -1 0.7 -0.7 0.2 1 -0.3 1.4 -1.1 3.2 -1.6 4 -0.6 1 -0.7 0.7 -0.2 -1z"/>
  <path d="M363.6 1212 c0.4 -1.4 1.5 -4.3 2.5 -6.5 1.1 -2.2 1.6 -2.9 1.3 -1.5 -0.4 1.4 -1.5 4.3 -2.5 6.5 -1.1 2.2 -1.6 2.9 -1.3 1.5z"/>
  <path d="M731.2 1207.8 c0.3 -0.7 4.4 -11.7 9.2 -24.4 l8.8 -23.1 31.6 -0.6 c17.3 -0.4 102.1 -0.7 188.5 -0.7 l156.9 0 -31.7 25 -31.7 25 -166 0 c-132.4 0 -165.9 -0.3 -165.6 -1.2z"/>
  <path d="M368.6 1199 c0.3 -1.4 1.1 -3.2 1.6 -4 0.6 -1 0.7 -0.7 0.2 1 -0.3 1.4 -1.1 3.2 -1.6 4 -0.6 1 -0.7 0.7 -0.2 -1z"/>
  <path d="M371.6 1191 c0.4 -1.4 1.5 -4.3 2.5 -6.5 1.1 -2.2 1.6 -2.9 1.3 -1.5 -0.4 1.4 -1.5 4.3 -2.5 6.5 -1.1 2.2 -1.6 2.9 -1.3 1.5z"/>
  <path d="M376.6 1178 c0.3 -1.4 1.1 -3.2 1.6 -4 0.6 -1 0.7 -0.7 0.2 1 -0.3 1.4 -1.1 3.2 -1.6 4 -0.6 1 -0.7 0.7 -0.2 -1z"/>
  <path d="M1170 937.3 c0 -0.5 9.4 -26.4 20.8 -57.8 l20.8 -57 29.4 -16.3 c16.1 -8.9 29.4 -16.1 29.5 -16 0.1 0.2 -12.7 33.5 -28.4 74 l-28.6 73.8 -21.7 0 c-12 0 -21.8 -0.3 -21.8 -0.7z"/>
  <path d="M1227.6 910 c0.4 -1.4 1.5 -4.3 2.5 -6.5 1.1 -2.2 1.6 -2.9 1.3 -1.5 -0.4 1.4 -1.5 4.3 -2.5 6.5 -1.1 2.2 -1.6 2.9 -1.3 1.5z"/>
  <path d="M1232.4 897.5 c2.6 -8.4 41.5 -108.6 41.6 -107 0 1.9 -40.5 107.4 -41.7 108.5 -0.3 0.3 -0.3 -0.4 0.1 -1.5z"/>
  <path d="M879.1 821.3 c0 -0.5 2.8 -8 6.2 -16.8 l6.2 -16 163 -0.2 c89.7 -0.2 174.1 0.1 187.7 0.5 l24.6 0.7 -29.2 16.3 -29.3 16.2 -164.7 0 c-90.5 0 -164.6 -0.3 -164.5 -0.7z"/>
  <path d="M876.6 817 c0.3 -1.4 1.1 -3.2 1.6 -4 0.6 -1 0.7 -0.7 0.2 1 -0.3 1.4 -1.1 3.2 -1.6 4 -0.6 1 -0.7 0.7 -0.2 -1z"/>
  <path d="M879.6 809 c0.4 -1.4 1.5 -4.3 2.5 -6.5 1.1 -2.2 1.6 -2.9 1.3 -1.5 -0.4 1.4 -1.5 4.3 -2.5 6.5 -1.1 2.2 -1.6 2.9 -1.3 1.5z"/>
  <path d="M884.6 796 c0.3 -1.4 1.1 -3.2 1.6 -4 0.6 -1 0.7 -0.7 0.2 1 -0.3 1.4 -1.1 3.2 -1.6 4 -0.6 1 -0.7 0.7 -0.2 -1z"/>
  <path d="M424.5 663 c-29.7 -36.9 -58.4 -72.4 -63.7 -78.8 -5.3 -6.4 -9.7 -12 -9.8 -12.4 0 -0.5 23.3 -0.8 51.8 -0.7 l51.7 0 50.9 63.5 c28.1 35.2 50.4 64 50 64.4 -0.5 0.5 -17.5 7.5 -37.9 15.6 -20.3 8 -37.5 14.8 -38 15 -0.6 0.3 -25.3 -29.7 -55 -66.6z"/>
  <path d="M495.5 617.4 c-21.3 -26.2 -38.4 -47.8 -38.2 -48.1 0.3 -0.2 4.1 4 8.4 9.4 41.8 51.8 69.3 86.3 68.9 86.3 -0.2 0 -17.8 -21.4 -39.1 -47.6z"/>
 </g>
 <g fill="#39617c">
  <path d="M1401 1393.8 c0 -3 8.1 -118.2 8.4 -118.5 0.6 -0.6 42.6 -9.6 43 -9.2 0.9 0.8 -48.8 129.2 -50.1 129.7 -0.8 0.2 -1.3 -0.6 -1.3 -2z"/>
 </g>
 <g fill="#4f5673">
  <path d="M1082 1429.1 c0 -1.4 6.6 -4.9 31.3 -16.3 17.1 -8 90.4 -42 162.8 -75.7 129.5 -60.1 138.9 -64.2 138.9 -60.1 0 0.6 -0.7 1 -1.5 1 -0.8 0 -1.5 0.7 -1.5 1.6 0 0.8 -1.8 27 -4 58 l-4 56.5 -6.4 16.7 c-3.6 9.2 -6.8 17.5 -7.1 18.5 -0.7 1.6 -9 1.7 -154.6 1.7 -149.4 0 -153.9 -0.1 -153.9 -1.9z"/>
 </g>
 <g fill="#d43850">
  <path d="M366 1429.2 c0 -1.6 2.1 -2.2 14.8 -4.4 8.1 -1.5 51.3 -9.2 96 -17.2 44.6 -8 82.9 -14.6 84.9 -14.6 3.2 0 7.7 2.6 29.5 17.2 18.2 12.1 25.8 17.6 25.8 19 0 1.7 -4.1 1.8 -125.5 1.8 -120.8 0 -125.5 -0.1 -125.5 -1.8z"/>
 </g>
 <g fill="#c14a5d">
  <path d="M588.5 1413.4 c-14.3 -9.6 -26.6 -17.4 -27.2 -17.4 -0.7 0 -1.3 -0.6 -1.3 -1.4 0 -1.8 2.9 -2.1 37.5 -4.1 14.9 -0.9 34.4 -2 43.4 -2.6 9 -0.5 16.6 -0.8 16.9 -0.5 0.4 0.5 -1.9 6.8 -12.8 35.4 l-3.2 8.2 -13.6 -0.1 -13.7 0 -26 -17.5z"/>
 </g>
 <g fill="#817684">
  <path d="M1054.6 1421.8 c-0.3 -5 -0.6 -20.6 -0.6 -34.7 l0 -25.6 18.8 -49.2 18.7 -49.3 8 0 c4.4 0 42 1.4 83.5 3 41.5 1.7 109.4 4.4 150.8 6 41.4 1.7 76.6 3 78.2 3 2 0 3 0.5 3 1.5 0 0.8 -0.5 1.5 -1.1 1.5 -0.9 0 -113.3 52.1 -296.9 137.4 l-33.5 15.6 -14.1 0 -14.1 0 -0.7 -9.2z"/>
 </g>
 <g fill="#a26a75">
  <path d="M1028 1430.3 c0 -1.7 28.5 -75.3 28.7 -74.1 0.1 0.7 0.4 17.8 0.6 38.1 l0.4 36.7 -14.9 0 c-8.1 0 -14.8 -0.3 -14.8 -0.7z"/>
 </g>
 <g fill="#4e9fa1">
  <path d="M1410 1276.2 c0 -2.7 56 -58.2 58.8 -58.2 1.2 0 2.2 0.3 2.2 0.8 0 1.6 -18.3 48.8 -19.4 49.8 -1 1 -36.7 9.4 -40 9.4 -0.9 0 -1.6 -0.8 -1.6 -1.8z"/>
  <path d="M1582.2 885.2 c-3.4 -12.5 -10.3 -37.1 -15.2 -54.7 -4.9 -17.6 -9 -33.3 -9 -35 l0 -3 42.5 -15.8 c23.4 -8.7 43.4 -15.7 44.5 -15.5 1.7 0.3 -1.3 8.6 -26.2 73.6 -15.5 40.2 -28.6 73.2 -29.2 73.2 -0.6 0 -3.9 -10.2 -7.4 -22.8z"/>
 </g>
 <g fill="#e95a5c">
  <path d="M280.3 1429.3 c0.3 -1.3 62 -162.2 67.3 -175.6 0.4 -1.3 1.4 -1.7 2.8 -1.4 3.9 0.8 213.6 139.8 213.6 141.6 0 1.3 -2.5 2.1 -13.2 4 -7.3 1.3 -51.9 9.2 -99.1 17.7 l-85.8 15.4 -43.1 0 c-40.5 0 -43 -0.1 -42.5 -1.7z"/>
 </g>
 <g fill="#d66869">
  <path d="M560.1 1394.6 c-1.5 -1.8 -4.3 3.2 29.3 -51.6 12.6 -20.6 25.7 -42.1 29 -47.7 8.9 -14.9 7 -15.4 38.2 10.3 13.7 11.3 24.8 21 24.6 21.7 -0.3 1.4 -23.4 62.1 -23.7 62.5 -0.3 0.3 -14 1.2 -56 3.7 -14.3 0.8 -29.2 1.7 -33.1 2.1 -5.6 0.4 -7.3 0.2 -8.3 -1z"/>
 </g>
 <g fill="#9b9796">
  <path d="M1328 1275 c-36.6 -1.5 -104.7 -4.2 -151.5 -6 -46.7 -1.9 -85.2 -3.5 -85.4 -3.6 -0.1 -0.2 9 -24.6 20.3 -54.3 11.3 -29.7 20.6 -54.3 20.6 -54.6 0 -0.3 -6.5 -0.5 -14.5 -0.5 -14 0 -14.5 -0.1 -14.5 -2.1 0 -1.1 4.6 -11.8 10.1 -23.7 5.6 -11.9 10.6 -22.9 11.1 -24.4 2.3 -6.3 1.3 -6.9 98.6 52.4 119 72.3 156.4 95.1 175.5 106.7 10.7 6.5 15.7 10 15.5 11.1 -0.5 2.2 -10.1 2.1 -85.8 -1z"/>
 </g>
 <g fill="#d5827c">
  <path d="M657 1311.4 c-30.1 -24.9 -29 -24.1 -30.1 -22.3 -0.6 1 -0.9 0.5 -0.9 -1.8 0 -3.1 0.1 -3.2 41.2 -24.4 39.2 -20.3 47.8 -24.1 46.6 -20.8 -4 11.5 -33.4 87.9 -33.8 87.9 -0.3 0 -10.6 -8.4 -23 -18.6z"/>
 </g>
 <g fill="#86b0a4">
  <path d="M1408.5 1276 c-2.5 -1.6 -15.6 -26.8 -75.2 -145 -54.7 -108.1 -72.3 -143.9 -72.3 -146.5 0 -3.4 0.1 -3.5 3.8 -3.5 2.1 0 47.9 8.8 101.7 19.5 53.9 10.7 115.4 22.9 136.7 27.1 21.3 4.2 38.6 7.9 38.4 8.3 -0.2 0.3 -16.2 41.8 -35.5 92.1 l-35.1 91.6 -29 28.9 c-16 16 -29.4 29.1 -29.8 29.2 -0.4 0.2 -2 -0.6 -3.7 -1.7z"/>
 </g>
 <g fill="#76beaa">
  <path d="M1636.8 730.3 c-8.5 -6.5 -43.9 -33.2 -78.7 -59.3 l-63.2 -47.5 0.3 -4 c0.3 -4 0.3 -4 4.8 -4.3 2.5 -0.2 51.2 -9.3 108.3 -20.2 57.1 -11 105.1 -20 106.8 -20 2.1 0 2.9 0.4 2.7 1.4 -1.3 5.5 -63.5 165.6 -64.4 165.6 -0.5 0 -8 -5.3 -16.6 -11.7z"/>
 </g>
 <g fill="#ef8072">
  <path d="M495 1351.8 c-36.6 -24.2 -84.8 -56 -107.1 -70.7 l-40.6 -26.8 25.6 -66.9 c18.3 -47.7 26.2 -67 27.3 -67.2 2.5 -0.5 27.4 16.5 82.8 56.8 27.8 20.2 72.1 52.3 98.5 71.5 26.4 19.1 48.5 35.2 49 35.7 0.7 0.6 0.3 1.5 -1 2.6 -1.2 0.9 -4.8 6.2 -8.1 11.7 -21.3 35 -58.7 96.1 -59.3 96.6 -0.3 0.3 -30.5 -19.2 -67.1 -43.3z"/>
 </g>
 <g fill="#a3afa1">
  <path d="M1395.5 1268.1 c-8.8 -5.4 -31.5 -19.3 -50.5 -30.8 -19 -11.5 -75.4 -45.8 -125.3 -76.2 -85.4 -52 -90.9 -55.2 -92.3 -53.4 -1.3 1.6 -1.4 1.5 -1.2 -1.8 0.3 -3.4 2.8 -5.9 40.3 -40 22 -19.9 52 -47.2 66.7 -60.6 24 -21.8 27.1 -24.3 30.2 -24.3 2.1 0 3.6 0.6 4 1.5 0.4 1 -0.1 1.5 -1.4 1.5 -1.1 0 -2 0.2 -2 0.5 0 0.4 136.2 270.4 146.6 290.8 0.8 1.5 1.3 2.7 1.2 2.6 -0.2 0 -7.5 -4.4 -16.3 -9.8z"/>
 </g>
 <g fill="#c1a097">
  <path d="M905 1154.3 c0 -1.5 4.1 -2.7 25.8 -7.5 14.1 -3.2 63.7 -14.3 110.1 -24.8 46.4 -10.4 85.7 -19 87.3 -19 2.8 0 2.8 0.1 1.3 2.3 -1.5 2 -18.8 38.6 -22.2 47 l-1.5 3.7 -100.4 0 c-95 0 -100.4 -0.1 -100.4 -1.7z"/>
 </g>
 <g fill="#8bc9ac">
  <path d="M1501.5 1030.8 c-21.4 -4.2 -83.5 -16.5 -137.9 -27.3 -54.4 -10.8 -99.7 -19.4 -100.7 -19.2 -1.5 0.4 -1.9 0 -1.9 -1.8 0 -1.9 17.9 -13.6 119.3 -77.6 159.2 -100.6 174.1 -110 175 -110.9 0.4 -0.4 -13 -38.7 -29.9 -85.1 -28.2 -77.8 -30.6 -84.8 -30.1 -89.1 0.6 -4.6 1.5 -5.8 21.7 -27.8 l21.1 -23 91 0 c50 0 90.9 0.3 90.9 0.6 0 0.4 -0.5 2.3 -1.1 4.3 l-1.1 3.6 -106.1 20.5 c-58.4 11.2 -107.8 20.5 -109.7 20.6 -1.9 0.1 -3.5 0.6 -3.5 1.2 0 0.9 73.7 56.9 152.2 115.5 2.3 1.8 4.3 3.6 4.3 4.2 0 0.5 -2 6.2 -4.5 12.6 -4.3 11.1 -4.8 11.8 -8.3 13.2 -2 0.8 -21 7.9 -42.2 15.7 -21.2 7.9 -38.6 14.4 -38.7 14.5 -0.2 0.1 1.3 5.5 3.1 12.1 10.2 35.7 26.7 95.7 26.8 97.2 0.1 0.9 -11.3 31.4 -25.3 67.7 l-25.4 66.1 -39 -7.8z"/>
 </g>
 <g fill="#ef9c86">
  <path d="M594.3 1263 c-126.8 -92.2 -166.7 -120.9 -180.3 -130 -8.5 -5.6 -15.6 -10.4 -15.8 -10.5 -0.2 -0.2 6.8 -18.8 15.5 -41.4 14.8 -38.4 15.9 -41.1 18.2 -41.1 7.1 0 50.3 10.3 82.1 19.5 19.5 5.7 76.7 22.4 127 37 50.3 14.7 109.7 32 132 38.5 22.3 6.5 44.9 13 50.3 14.6 7.6 2.2 9.7 3.2 9.7 4.6 0 1.7 -2.3 1.8 -43.2 2 l-43.2 0.3 -16.6 43.5 -16.6 43.5 -42.6 22.1 -42.6 22 -33.9 -24.6z"/>
 </g>
 <g fill="#dab6a0">
  <path d="M858 1155.4 c0 -0.4 -1.6 -7.4 -3.6 -15.8 -1.9 -8.3 -7.5 -32.2 -12.4 -53.1 -4.9 -20.9 -12 -51.6 -15.9 -68.3 -3.9 -16.6 -7.1 -31.9 -7.1 -33.8 l0 -3.6 4.3 0.4 c2.5 0.2 65.3 24.7 155.7 60.7 83.3 33.2 151.7 60.6 151.9 60.8 2.6 2.2 -7.4 4.5 -191.6 45.9 l-33.2 7.4 -24 0 c-13.3 0 -24.1 -0.3 -24.1 -0.6z"/>
  <path d="M488.5 608.8 c-17.1 -20.9 -31.2 -38.5 -31.3 -39 -0.2 -0.4 16.6 -0.8 37.2 -0.8 l37.6 0 11.5 11.8 c15.7 16.1 16.1 13.1 -5.6 42.8 -9.4 12.9 -17.4 23.4 -17.7 23.4 -0.4 0 -14.6 -17.2 -31.7 -38.2z"/>
 </g>
 <g fill="#a7ddb2">
  <path d="M1520.5 793.5 c-35.1 -5 -136.6 -19.1 -226 -31.4 l-63 -8.7 -0.3 -3.5 -0.3 -3.5 28.8 -14.1 c15.8 -7.8 46.1 -22.7 67.3 -33.1 21.2 -10.4 67.1 -33 102 -50.2 34.9 -17.1 65 -31.4 66.8 -31.7 3.1 -0.5 3.3 -0.4 2.7 1.9 -0.5 1.8 7.9 25.9 30.9 89.3 29.1 80 31.4 86.9 29.8 88.1 -2.4 1.9 -5.2 1.7 -38.7 -3.1z"/>
 </g>
 <g fill="#f8b290">
  <path d="M478.5 1053.1 c-1.1 -0.4 -12.7 -3 -25.7 -5.6 -13.1 -2.7 -23.8 -5.2 -23.8 -5.6 0 -0.7 46 -121.1 46.5 -121.7 0.6 -0.7 75.1 -21.2 77.1 -21.2 5.6 0 4 3.8 -34.6 81 -20.4 40.7 -37.1 74 -37.3 73.9 -0.1 0 -1.1 -0.4 -2.2 -0.8z"/>
 </g>
 <g fill="#d0c7ae">
  <path d="M1125 1104.3 c-2.9 -1.2 -5.6 -4.6 -15.7 -20.1 -6.6 -10.3 -20.6 -31.5 -30.9 -47.2 -49.4 -75.2 -60.4 -92.2 -60.4 -94 0 -2 1.2 -2 61.9 -2 l61.9 0 21.9 6.9 c12 3.8 38.9 12.4 59.9 19 20.9 6.7 39 12.1 40.3 12.1 1.4 0 2.1 0.5 1.9 1.4 -0.2 0.7 -5.7 6.2 -12.3 12.3 -19.2 17.5 -120.9 109.6 -123 111.5 -1.8 1.4 -2.4 1.5 -5.5 0.1z"/>
  <path d="M551.6 597.5 c0.4 -0.8 0.1 -2.2 -0.6 -3 -0.9 -1.1 0 -3.7 5.2 -13.5 l6.3 -12 135.8 0 c129.3 0 135.7 0.1 135.7 1.8 0 1.6 -5 2.2 -55.7 7.1 -30.7 3 -61.9 6 -69.3 6.7 -166.5 16.1 -158.3 15.4 -157.4 12.9z"/>
 </g>
 <g fill="#b6deb3">
  <path d="M1263 983.1 c0 -0.7 -0.4 -1 -0.9 -0.7 -2.7 1.7 -6.3 -2.7 -23 -28.4 l-17.9 -27.4 2.3 -6 c2 -5.3 49.2 -129 51 -133.8 0.7 -1.7 -1.4 -1.8 -35.4 -1.8 -34.9 0 -36.1 -0.1 -36.1 -1.9 0 -1.1 6 -9.7 13.4 -19.2 7.4 -9.4 13.6 -18.1 13.9 -19.3 0.2 -1.2 8.9 -35.4 19.2 -76.1 10.3 -40.7 20.1 -79.7 21.8 -86.7 l3.1 -12.8 134.4 0 c101.3 0 134.1 0.3 133.6 1.2 -1.5 2.3 -45.7 50.3 -46.8 50.7 -0.6 0.2 -31.9 15.6 -69.6 34.1 -37.7 18.5 -86.3 42.4 -108 53 -72.5 35.7 -84.5 41.8 -83 42.3 0.8 0.3 29.6 4.4 64 9.1 34.4 4.7 92 12.6 128 17.6 36 5 80.9 11.2 99.7 13.8 l34.3 4.7 -13.3 8.4 c-7.2 4.6 -73.7 46.6 -147.7 93.4 -74 46.7 -135.1 85.4 -135.7 85.9 -0.9 0.7 -1.3 0.7 -1.3 -0.1z"/>
 </g>
 <g fill="#f3ba9e">
  <path d="M823 1153.5 c-4.1 -1.3 -46.4 -13.7 -94 -27.5 -77.3 -22.5 -125 -36.4 -222.2 -64.7 l-29.6 -8.7 37.4 -74.8 c20.6 -41.1 37.4 -74.9 37.4 -75.1 0 -0.2 -17.2 4.5 -38.2 10.4 -21.1 6 -38.6 10.7 -39 10.6 -1.3 -0.4 24.9 -67.2 26.6 -67.5 0.8 -0.2 12.6 8.8 26.2 20 13.5 11.2 25.8 21 27.3 22 1.4 0.9 21.5 7.3 44.6 14.3 38.9 11.7 85 25.7 129 39.1 9.9 3 35.5 10.7 56.9 17.2 34.3 10.3 39 12 39.7 14 0.8 2 0.6 2.2 -1.1 1.7 -1.1 -0.4 -2 -0.4 -2 -0.1 0 0.3 3.2 14.2 7.1 30.8 3.9 16.7 11 47.4 15.9 68.3 4.9 20.9 10.5 45 12.5 53.5 2 8.5 3.8 16.3 4.1 17.3 0.5 1.6 -0.7 1.7 -15.3 1.6 -13.6 -0.1 -16.8 -0.4 -23.3 -2.4z"/>
 </g>
 <g fill="#e0c6ac">
  <path d="M972.3 1043.7 c-84.3 -33.6 -153.3 -61.6 -153.3 -62.2 0 -0.5 17.5 -9.9 38.9 -20.7 l38.9 -19.8 61.8 0 61.9 0 16.5 25.3 c9.1 13.8 25.5 38.9 36.6 55.7 20.6 31.4 34.3 52.1 47.1 71.8 4 6.1 6.7 11.2 6 11.1 -0.6 -0.1 -70.2 -27.6 -154.4 -61.2z"/>
  <path d="M551.2 598 c1.3 -2 0 -3.5 -19.7 -23.5 l-4.9 -5 19.8 -0.3 c11 -0.1 20 -0.1 20.2 0.1 0.2 0.2 -2.8 6.2 -6.6 13.3 -6.4 11.8 -6.8 12.9 -4.9 13.2 1.4 0.2 1.9 0.9 1.5 1.9 -0.3 0.8 -0.6 1.7 -0.6 1.9 0 0.2 -1.4 0.4 -3 0.4 -2.7 0 -2.9 -0.2 -1.8 -2z"/>
 </g>
 <g fill="#cae0b3">
  <path d="M1131.2 705.2 l-97.2 -47.5 0 -33.1 c0 -18.2 0.3 -38.2 0.7 -44.3 l0.6 -11.3 121.4 0 c66.7 0 121.3 0.3 121.3 0.6 0 0.7 -12.8 51.7 -22 87.9 -3.2 12.7 -9.7 38.5 -14.5 57.4 -8.4 33.4 -9.9 38.2 -12 38 -0.5 -0.1 -44.8 -21.5 -98.3 -47.7z"/>
 </g>
 <g fill="#f0caa9">
  <path d="M782.5 971.9 c-66.5 -20.2 -124.6 -37.9 -186 -56.4 -23.1 -7 -43.2 -13.4 -44.6 -14.3 -1.5 -1 -13.6 -10.7 -26.9 -21.7 -13.4 -11 -24.7 -20.2 -25.1 -20.5 -0.4 -0.3 13.1 -36.7 30 -80.9 l30.9 -80.4 -21.4 -26.2 c-11.8 -14.5 -21.4 -26.7 -21.4 -27.2 0 -0.4 7.8 -11.4 17.3 -24.3 11.2 -15.2 17.9 -23.6 19.2 -23.8 1.8 -0.2 3.8 4.5 16.9 38.5 16.1 42.1 65.6 170.3 79.3 205.8 4.7 12.1 8.6 22.2 8.8 22.3 0.4 0.4 14 1.7 89.5 8.7 66.1 6.2 101.3 9.5 102.6 9.8 0.7 0.1 -3.3 12.1 -10.1 29.7 l-11.2 29.5 37.2 0.5 37.3 0.5 -41.7 21.1 -41.6 21.1 -39 -11.8z"/>
 </g>
 <g fill="#d5dbb3">
  <path d="M1221.5 970.3 c-21.4 -6.8 -50.6 -16.1 -64.9 -20.6 l-25.8 -8.2 42.5 -0.3 42.5 -0.2 3.3 -9 c1.8 -5 3.7 -9 4 -9 0.7 0 37.6 56.1 38.6 58.6 0.3 0.8 0.1 1.4 -0.3 1.3 -0.5 0 -18.4 -5.7 -39.9 -12.6z"/>
  <path d="M970.7 784.3 c-0.3 -0.5 -3 -9.6 -6.2 -20.3 -3.1 -10.7 -8.9 -30.7 -13 -44.5 -33.8 -114.6 -43.5 -147.9 -43.5 -149.5 0 -0.7 20.3 -1 64.9 -1 l65 0 -0.6 42.8 -0.6 42.7 97.2 47.4 c53.5 26.1 97.4 47.8 97.6 48.2 0.3 0.4 -5.5 8.4 -12.8 17.8 l-13.2 17.1 -117.2 0 c-64.4 0 -117.4 -0.3 -117.6 -0.7z"/>
 </g>
 <g fill="#e7d7b1">
  <path d="M818 881.4 c-12.9 -1.3 -45.5 -4.4 -72.5 -6.9 -76.5 -7.1 -88.6 -8.3 -89 -8.7 -0.4 -0.4 -7.2 -18 -45.3 -116.8 -54.1 -140.3 -58.5 -152 -58.1 -152.4 0.2 -0.2 31.9 -3.4 70.4 -7.1 38.5 -3.7 76.3 -7.3 84 -8 7.7 -0.8 39.9 -3.9 71.5 -7 l57.5 -5.5 37.5 0.2 37.4 0.3 4.2 14.5 c3.8 13.1 19 64.9 38.9 132.5 14.8 50.1 19.5 66.5 19.5 67.5 0 0.7 -14.7 1 -42.2 1 l-42.3 0 -16.4 43.3 c-9.1 23.7 -17.6 46 -18.9 49.5 l-2.4 6.2 -5.1 -0.1 c-2.9 -0.1 -15.8 -1.2 -28.7 -2.5z"/>
 </g>
</svg>